999
dxflib 2.2.0.0
  0
SECTION
  2
HEADER
  9
$ACADVER
  1
AC1015
  9
$HANDSEED
  5
FFFF
  9
$DIMLIM
 70
0
  9
$DIMTIX
 70
0
  9
$AUNITS
 70
0
  9
$QTEXTMODE
 70
0
  9
$COORDS
 70
1
  9
$USERR1
 40
0.0
  9
$DIMALTU
 70
2
  9
$USERR2
 40
0.0
  9
$USERR3
 40
0.0
  9
$USERR4
 40
0.0
  9
$LIMMAX
 10
1200.0
 20
600.0
  9
$USERR5
 40
0.0
  9
$PELEVATION
 40
0.0
  9
$DIMALTZ
 70
0
  9
$DIMFIT
 70
5
  9
$TILEMODE
 70
1
  9
$PEXTMIN
 10
100000000000000000000.0
 20
100000000000000000000.0
 30
100000000000000000000.0
  9
$TDUSRTIMER
 40
2456828.618460648227483
  9
$DWGCODEPAGE
  3
ansi_1252
  9
$DIMUNIT
 70
2
  9
$DIMSOXD
 70
0
  9
$DIMTZIN
 70
0
  9
$SPLINETYPE
 70
6
  9
$DIMLFAC
 40
1.0
  9
$DIMSE1
 70
0
  9
$FILLETRAD
 40
0.5
  9
$DIMSE2
 70
0
  9
$TEXTSTYLE
  7
STANDARD
  9
$DIMTSZ
 40
0.0
  9
$PUCSXDIR
 10
1.0
 20
0.0
 30
0.0
  9
$DIMTXSTY
  7
STANDARD
  9
$PLIMMAX
 10
0.0
 20
0.0
  9
$DIMTM
 40
0.0
  9
$UCSORG
 10
0.0
 20
0.0
 30
0.0
  9
$DIMTP
 40
0.0
  9
$PSLTSCALE
 70
1
  9
$ANGBASE
 50
0.0
  9
$PUCSYDIR
 10
0.0
 20
1.0
 30
0.0
  9
$DIMASZ
 40
0.18
  9
$INSBASE
 10
0.0
 20
0.0
 30
0.0
  9
$UNITMODE
 70
0
  9
$EXTMAX
 10
814.0000000094282768
 20
580.0000000000002274
 30
0.0
  9
$ELEVATION
 40
0.0
  9
$TDCREATE
 40
2456828.6176041672006249
  9
$DIMDEC
 70
4
  9
$CELTYPE
  6
BYBLOCK
  9
$MENU
  1
.
  9
$ANGDIR
 70
0
  9
$DIMALTTD
 70
2
  9
$TREEDEPTH
 70
3020
  9
$LTSCALE
 40
10.0
  9
$TDUPDATE
 40
2456828.6185532407835126
  9
$DIMTOLJ
 70
1
  9
$DIMCEN
 40
0.09
  9
$DIMTVP
 40
0.0
  9
$TRACEWID
 40
0.05
  9
$CMLSTYLE
  2
STANDARD
  9
$DISPSILH
 70
0
  9
$DIMSTYLE
  2
STANDARD
  9
$SKETCHINC
 40
0.1
  9
$FILLMODE
 70
1
  9
$PLINEGEN
 70
0
  9
$THICKNESS
 40
0.0
  9
$PUCSORG
 10
0.0
 20
0.0
 30
0.0
  9
$CELTSCALE
 40
1.0
  9
$DIMALTTZ
 70
0
  9
$INSUNITS
 70
4
  9
$PLINEWID
 40
0.0
  9
$PEXTMAX
 10
-100000000000000000000.0
 20
-100000000000000000000.0
 30
-100000000000000000000.0
  9
$DIMJUST
 70
0
  9
$UCSYDIR
 10
0.0
 20
1.0
 30
0.0
  9
$PDSIZE
 40
0.0
  9
$ATTDIA
 70
0
  9
$HANDLING
 70
1
  9
$DIMUPT
 70
0
  9
$DIMTAD
 70
0
  9
$UCSXDIR
 10
1.0
 20
0.0
 30
0.0
  9
$MAXACTVP
 70
64
  9
$DIMSAH
 70
0
  9
$USERI1
 70
0
  9
$USERI2
 70
0
  9
$USERI3
 70
0
  9
$SKPOLY
 70
0
  9
$USERI4
 70
0
  9
$USERI5
 70
0
  9
$LIMMIN
 10
0.0
 20
0.0
  9
$MIRRTEXT
 70
1
  9
$TEXTSIZE
 40
0.2
  9
$DRAGMODE
 70
2
  9
$DIMGAP
 40
0.09
  9
$LUPREC
 70
4
  9
$CECOLOR
 62
256
  9
$DIMSD1
 70
0
  9
$DIMSD2
 70
0
  9
$WORLDVIEW
 70
1
  9
$DELOBJ
 70
1
  9
$PLIMCHECK
 70
0
  9
$DIMTFAC
 40
1.0
  9
$CMLJUST
 70
0
  9
$USRTIMER
 70
1
  9
$SURFU
 70
6
  9
$SURFV
 70
6
  9
$ATTREQ
 70
1
  9
$DIMASO
 70
1
  9
$DIMDLE
 40
0.0
  9
$EXTMIN
 10
19.000000009428021
 20
9.9999999999999982
 30
0.0
  9
$DIMDLI
 40
0.38
  9
$LUNITS
 70
2
  9
$DIMCLRD
 70
0
  9
$SHADEDIF
 70
70
  9
$DIMCLRE
 70
0
  9
$SPLINESEGS
 70
8
  9
$DIMRND
 40
0.0
  9
$DIMALT
 70
0
  9
$DIMCLRT
 70
0
  9
$DIMTOH
 70
1
  9
$VISRETAIN
 70
1
  9
$SAVEIMAGES
 70
1
  9
$SHADEDGE
 70
3
  9
$DIMTOL
 70
0
  9
$SURFTYPE
 70
6
  9
$CHAMFERA
 40
10.0
  9
$SURFTAB1
 70
6
  9
$CHAMFERB
 40
10.0
  9
$SURFTAB2
 70
6
  9
$CHAMFERC
 40
0.0
  9
$AUPREC
 70
0
  9
$CHAMFERD
 40
0.0
  9
$DIMTDEC
 70
4
  9
$OSMODE
 70
511
  9
$PDMODE
 70
0
  9
$SPLFRAME
 70
0
  9
$PLIMMIN
 10
0.0
 20
0.0
  9
$LIMCHECK
 70
0
  9
$PINSBASE
 10
0.0
 20
0.0
 30
0.0
  9
$ORTHOMODE
 70
0
  9
$CLAYER
  8
LAYER_1
  9
$DIMSHO
 70
1
  9
$DIMTOFL
 70
0
  9
$DIMTXT
 40
0.18
  9
$DIMEXE
 40
0.18
  9
$TDINDWG
 40
0.0000000116
  9
$REGENMODE
 70
1
  9
$ATTMODE
 70
1
  9
$PICKSTYLE
 70
1
  9
$CMLSCALE
 40
1.0
  9
$DIMTIH
 70
1
  9
$DIMZIN
 70
0
  9
$DIMSCALE
 40
1.0
  9
$DIMALTD
 70
2
  9
$DIMAUNIT
 70
0
  9
$DIMALTF
 40
25.3999999999999986
  9
$DIMEXO
 40
0.0625
  0
ENDSEC
  0
SECTION
  2
TABLES
  0
TABLE
  2
VPORT
  5
8
100
AcDbSymbolTable
 70
1
  0
VPORT
  5
30
100
AcDbSymbolTableRecord
100
AcDbViewportTableRecord
  2
*Active
 70
0
 10
0.0
 20
0.0
 11
1.0
 21
1.0
 12
286.3055555555554861
 22
148.5
 13
0.0
 23
0.0
 14
10.0
 24
10.0
 15
10.0
 25
10.0
 16
0.0
 26
0.0
 36
1.0
 17
0.0
 27
0.0
 37
0.0
 40
297.0
 41
1.92798353909465
 42
50.0
 43
0.0
 44
0.0
 50
0.0
 51
0.0
 71
0
 72
100
 73
1
 74
3
 75
1
 76
1
 77
0
 78
0
281
0
 65
1
110
0.0
120
0.0
130
0.0
111
1.0
121
0.0
131
0.0
112
0.0
122
1.0
132
0.0
 79
0
146
0.0
  0
ENDTAB
  0
TABLE
  2
LTYPE
  5
5
100
AcDbSymbolTable
 70
21
  0
LTYPE
  5
14
100
AcDbSymbolTableRecord
100
AcDbLinetypeTableRecord
  2
ByBlock
 70
0
  3

 72
65
 73
0
 40
0.0
  0
LTYPE
  5
15
100
AcDbSymbolTableRecord
100
AcDbLinetypeTableRecord
  2
ByLayer
 70
0
  3

 72
65
 73
0
 40
0.0
  0
LTYPE
  5
16
100
AcDbSymbolTableRecord
100
AcDbLinetypeTableRecord
  2
CONTINUOUS
 70
0
  3
Solid line
 72
65
 73
0
 40
0.0
  0
LTYPE
  5
31
100
AcDbSymbolTableRecord
100
AcDbLinetypeTableRecord
  2
DOT
 70
0
  3
Dot . . . . . . . . . . . . . . . . . . . . . .
 72
65
 73
2
 40
6.3499999999999996
 49
0.0
 74
0
 49
-6.3499999999999996
 74
0
  0
LTYPE
  5
32
100
AcDbSymbolTableRecord
100
AcDbLinetypeTableRecord
  2
DOT2
 70
0
  3
Dot (.5x) .....................................
 72
65
 73
2
 40
3.1749999999999998
 49
0.0
 74
0
 49
-3.1749999999999998
 74
0
  0
LTYPE
  5
33
100
AcDbSymbolTableRecord
100
AcDbLinetypeTableRecord
  2
DOTX2
 70
0
  3
Dot (2x) .  .  .  .  .  .  .  .  .  .  .  .  .
 72
65
 73
2
 40
12.6999999999999993
 49
0.0
 74
0
 49
-12.6999999999999993
 74
0
  0
LTYPE
  5
34
100
AcDbSymbolTableRecord
100
AcDbLinetypeTableRecord
  2
DASHED
 70
0
  3
Dashed __ __ __ __ __ __ __ __ __ __ __ __ __ _
 72
65
 73
2
 40
19.0500000000000007
 49
12.6999999999999993
 74
0
 49
-6.3499999999999996
 74
0
  0
LTYPE
  5
35
100
AcDbSymbolTableRecord
100
AcDbLinetypeTableRecord
  2
DASHED2
 70
0
  3
Dashed (.5x) _ _ _ _ _ _ _ _ _ _ _ _ _ _ _ _ _
 72
65
 73
2
 40
9.5250000000000004
 49
6.3499999999999996
 74
0
 49
-3.1749999999999998
 74
0
  0
LTYPE
  5
36
100
AcDbSymbolTableRecord
100
AcDbLinetypeTableRecord
  2
DASHEDX2
 70
0
  3
Dashed (2x) ____  ____  ____  ____  ____  ___
 72
65
 73
2
 40
38.1000000000000014
 49
25.3999999999999986
 74
0
 49
-12.6999999999999993
 74
0
  0
LTYPE
  5
37
100
AcDbSymbolTableRecord
100
AcDbLinetypeTableRecord
  2
DASHDOT
 70
0
  3
Dash dot __ . __ . __ . __ . __ . __ . __ . __
 72
65
 73
4
 40
25.3999999999999986
 49
12.6999999999999993
 74
0
 49
-6.3499999999999996
 74
0
 49
0.0
 74
0
 49
-6.3499999999999996
 74
0
  0
LTYPE
  5
38
100
AcDbSymbolTableRecord
100
AcDbLinetypeTableRecord
  2
DASHDOT2
 70
0
  3
Dash dot (.5x) _._._._._._._._._._._._._._._.
 72
65
 73
4
 40
12.6999999999999993
 49
6.3499999999999996
 74
0
 49
-3.1749999999999998
 74
0
 49
0.0
 74
0
 49
-3.1749999999999998
 74
0
  0
LTYPE
  5
39
100
AcDbSymbolTableRecord
100
AcDbLinetypeTableRecord
  2
DASHDOTX2
 70
0
  3
Dash dot (2x) ____  .  ____  .  ____  .  ___
 72
65
 73
4
 40
50.7999999999999972
 49
25.3999999999999986
 74
0
 49
-12.6999999999999993
 74
0
 49
0.0
 74
0
 49
-12.6999999999999993
 74
0
  0
LTYPE
  5
3A
100
AcDbSymbolTableRecord
100
AcDbLinetypeTableRecord
  2
DIVIDE
 70
0
  3
Divide ____ . . ____ . . ____ . . ____ . . ____
 72
65
 73
6
 40
31.75
 49
12.6999999999999993
 74
0
 49
-6.3499999999999996
 74
0
 49
0.0
 74
0
 49
-6.3499999999999996
 74
0
 49
0.0
 74
0
 49
-6.3499999999999996
 74
0
  0
LTYPE
  5
3B
100
AcDbSymbolTableRecord
100
AcDbLinetypeTableRecord
  2
DIVIDE2
 70
0
  3
Divide (.5x) __..__..__..__..__..__..__..__.._
 72
65
 73
6
 40
15.875
 49
6.3499999999999996
 74
0
 49
-3.1749999999999998
 74
0
 49
0.0
 74
0
 49
-3.1749999999999998
 74
0
 49
0.0
 74
0
 49
-3.1749999999999998
 74
0
  0
LTYPE
  5
3C
100
AcDbSymbolTableRecord
100
AcDbLinetypeTableRecord
  2
DIVIDEX2
 70
0
  3
Divide (2x) ________  .  .  ________  .  .  _
 72
65
 73
6
 40
63.5
 49
25.3999999999999986
 74
0
 49
-12.6999999999999993
 74
0
 49
0.0
 74
0
 49
-12.6999999999999993
 74
0
 49
0.0
 74
0
 49
-12.6999999999999993
 74
0
  0
LTYPE
  5
3D
100
AcDbSymbolTableRecord
100
AcDbLinetypeTableRecord
  2
CENTER
 70
0
  3
Center ____ _ ____ _ ____ _ ____ _ ____ _ ____
 72
65
 73
4
 40
50.7999999999999972
 49
31.75
 74
0
 49
-6.3499999999999996
 74
0
 49
6.3499999999999996
 74
0
 49
-6.3499999999999996
 74
0
  0
LTYPE
  5
3E
100
AcDbSymbolTableRecord
100
AcDbLinetypeTableRecord
  2
CENTER2
 70
0
  3
Center (.5x) ___ _ ___ _ ___ _ ___ _ ___ _ ___
 72
65
 73
4
 40
28.5749999999999993
 49
19.0500000000000007
 74
0
 49
-3.1749999999999998
 74
0
 49
3.1749999999999998
 74
0
 49
-3.1749999999999998
 74
0
  0
LTYPE
  5
3F
100
AcDbSymbolTableRecord
100
AcDbLinetypeTableRecord
  2
CENTERX2
 70
0
  3
Center (2x) ________  __  ________  __  _____
 72
65
 73
4
 40
101.5999999999999943
 49
63.5
 74
0
 49
-12.6999999999999993
 74
0
 49
12.6999999999999993
 74
0
 49
-12.6999999999999993
 74
0
  0
LTYPE
  5
40
100
AcDbSymbolTableRecord
100
AcDbLinetypeTableRecord
  2
BORDER
 70
0
  3
Border __ __ . __ __ . __ __ . __ __ . __ __ .
 72
65
 73
6
 40
44.4500000000000028
 49
12.6999999999999993
 74
0
 49
-6.3499999999999996
 74
0
 49
12.6999999999999993
 74
0
 49
-6.3499999999999996
 74
0
 49
0.0
 74
0
 49
-6.3499999999999996
 74
0
  0
LTYPE
  5
41
100
AcDbSymbolTableRecord
100
AcDbLinetypeTableRecord
  2
BORDER2
 70
0
  3
Border (.5x) __.__.__.__.__.__.__.__.__.__.__.
 72
65
 73
6
 40
22.2250000000000014
 49
6.3499999999999996
 74
0
 49
-3.1749999999999998
 74
0
 49
6.3499999999999996
 74
0
 49
-3.1749999999999998
 74
0
 49
0.0
 74
0
 49
-3.1749999999999998
 74
0
  0
LTYPE
  5
42
100
AcDbSymbolTableRecord
100
AcDbLinetypeTableRecord
  2
BORDERX2
 70
0
  3
Border (2x) ____  ____  .  ____  ____  .  ___
 72
65
 73
6
 40
88.9000000000000057
 49
25.3999999999999986
 74
0
 49
-12.6999999999999993
 74
0
 49
25.3999999999999986
 74
0
 49
-12.6999999999999993
 74
0
 49
0.0
 74
0
 49
-12.6999999999999993
 74
0
  0
ENDTAB
  0
TABLE
  2
LAYER
  5
2
100
AcDbSymbolTable
 70
1
  0
LAYER
  5
10
100
AcDbSymbolTableRecord
100
AcDbLayerTableRecord
  2
0
 70
0
 62
7
  6
CONTINUOUS
390
F
  0
ENDTAB
  0
TABLE
  2
STYLE
  5
3
100
AcDbSymbolTable
 70
1
  0
STYLE
  5
11
100
AcDbSymbolTableRecord
100
AcDbTextStyleTableRecord
  2
Standard
 70
0
 40
0.0
 41
0.75
 50
0.0
 71
0
 42
2.5
  3
txt
  4

  0
ENDTAB
  0
TABLE
  2
VIEW
  5
6
100
AcDbSymbolTable
 70
0
  0
ENDTAB
  0
TABLE
  2
UCS
  5
7
100
AcDbSymbolTable
 70
0
  0
ENDTAB
  0
TABLE
  2
APPID
  5
9
100
AcDbSymbolTable
 70
1
  0
APPID
  5
12
100
AcDbSymbolTableRecord
100
AcDbRegAppTableRecord
  2
ACAD
 70
0
  0
ENDTAB
  0
TABLE
  2
DIMSTYLE
  5
A
100
AcDbSymbolTable
 70
1
100
AcDbDimStyleTable
 71
0
  0
DIMSTYLE
105
27
100
AcDbSymbolTableRecord
100
AcDbDimStyleTableRecord
  2
Standard
 41
0.18
 42
0.0625
 43
3.75
 44
0.18
 70
0
 73
0
 74
0
 77
1
 78
8
140
0.18
141
2.5
143
0.03937007874016
147
0.09
171
3
172
1
271
2
272
2
274
3
278
44
283
0
284
8
340
11
  0
ENDTAB
  0
TABLE
  2
BLOCK_RECORD
  5
1
100
AcDbSymbolTable
 70
1
  0
BLOCK_RECORD
  5
1F
100
AcDbSymbolTableRecord
100
AcDbBlockTableRecord
  2
*Model_Space
340
22
  0
BLOCK_RECORD
  5
1B
100
AcDbSymbolTableRecord
100
AcDbBlockTableRecord
  2
*Paper_Space
340
1E
  0
BLOCK_RECORD
  5
23
100
AcDbSymbolTableRecord
100
AcDbBlockTableRecord
  2
*Paper_Space0
340
26
  0
ENDTAB
  0
ENDSEC
  0
SECTION
  2
BLOCKS
  0
BLOCK
  5
20
100
AcDbEntity
  8
0
100
AcDbBlockBegin
  2
*Model_Space
 70
0
 10
0.0
 20
0.0
 30
0.0
  3
*Model_Space
  1

  0
ENDBLK
  5
21
100
AcDbEntity
  8
0
100
AcDbBlockEnd
  0
BLOCK
  5
1C
100
AcDbEntity
 67
1
  8
0
100
AcDbBlockBegin
  2
*Paper_Space
 70
0
 10
0.0
 20
0.0
 30
0.0
  3
*Paper_Space
  1

  0
ENDBLK
  5
1D
100
AcDbEntity
 67
1
  8
0
100
AcDbBlockEnd
  0
BLOCK
  5
24
100
AcDbEntity
  8
0
100
AcDbBlockBegin
  2
*Paper_Space0
 70
0
 10
0.0
 20
0.0
 30
0.0
  3
*Paper_Space0
  1

  0
ENDBLK
  5
25
100
AcDbEntity
  8
0
100
AcDbBlockEnd
  0
ENDSEC
  0
SECTION
  2
ENTITIES
  0
LINE
  5
43
100
AcDbEntity
100
AcDbLine
  8
0
 62
256
370
-1
  6
CONTINUOUS
 10
687.9999999901226602
 20
60.0
 30
0.0
 11
728.0000000026938096
 21
60.0
 31
0.0
  0
LINE
  5
44
100
AcDbEntity
100
AcDbLine
  8
0
 62
256
370
-1
  6
CONTINUOUS
 10
728.0000000026938096
 20
580.0
 30
0.0
 11
110.0000000026937954
 21
580.0
 31
0.0
  0
LINE
  5
45
100
AcDbEntity
100
AcDbLine
  8
0
 62
256
370
-1
  6
CONTINUOUS
 10
110.0000000026937954
 20
60.0
 30
0.0
 11
149.9999999901226033
 21
60.0
 31
0.0
  0
LWPOLYLINE
  5
46
  8
0
 62
256
370
-1
  6
CONTINUOUS
100
AcDbEntity
100
AcDbPolyline
 90
76
 70
0
 10
110.0000000026937954
 20
59.8917924890765434
 10
112.5004214746846003
 20
59.9055713817488424
 10
115.0015734994880034
 20
59.943233688386421
 10
120.0053948510901023
 20
60.0681623152818389
 10
125.0101153446153006
 20
60.2224859132114929
 10
130.0143862671789918
 20
60.3621120256240076
 10
132.5159316665738061
 20
60.4126346320890732
 10
135.016858905896413
 20
60.4429481959680999
 10
137.5169993960361978
 20
60.4475411601921877
 10
140.0161845478826024
 20
60.420901967692437
 10
142.5142457723250971
 20
60.3575190613999126
 10
145.0110144802530101
 20
60.2518808842456934
 10
147.5063220825556982
 20
60.0984758791608726
 10
149.9999999901226886
 20
59.8917924890765434
 10
153.4279467482932091
 20
59.5468428107775196
 10
156.8515474019901887
 20
59.1600736858957177
 10
160.2709429159334888
 20
58.7328471868453974
 10
163.6862742548433971
 20
58.2665253860407475
 10
167.0976823834398033
 20
57.7624703558960135
 10
170.5053082664425972
 20
57.2220441688254127
 10
173.9092928685720096
 20
56.6466088972431265
 10
177.3097771545479873
 20
56.0375266135634078
 10
180.7069020890903914
 20
55.3961593902004807
 10
184.1008086369195098
 20
54.7238692995685483
 10
187.4916377627552038
 20
54.0220184140818276
 10
190.8795304313175052
 20
53.2919688061545713
 10
194.2646276073265028
 20
52.5350825482009611
 10
197.6470702555020864
 20
51.7527217126352213
 10
201.0269993405642879
 20
50.9462483718715902
 10
204.4045558272333096
 20
50.1170245983242708
 10
207.7798806802290983
 20
49.2664124644074874
 10
211.1531148642714868
 20
48.3957740425354572
 10
214.5243993440807913
 20
47.5064714051224115
 10
217.8938750843767878
 20
46.5998666245825675
 10
224.6279642053092971
 20
44.7401989237793316
 10
231.3565099448292131
 20
42.8276675194395082
 10
238.0806400206965918
 20
40.8731689908768629
 10
244.8014821506716885
 20
38.8875999174051401
 10
258.2378134439857149
 20
34.8668364529895172
 10
264.9555580428449275
 20
32.853435220673127
 10
271.6745255668524237
 20
30.85254976070269
 10
278.3958437337684018
 20
28.8750766523919502
 10
285.1206402613531736
 20
26.9319124750546912
 10
291.8500428673667102
 20
25.0339538080046502
 10
295.2168238615843165
 20
24.10533172187289
 10
298.5851792695693234
 20
23.1920972305555892
 10
301.9552500560415069
 20
22.2956124064669687
 10
305.3271771857209842
 20
21.4172393220212598
 10
308.7011016233278156
 20
20.5583400496326689
 10
312.0771643335820045
 20
19.7202766617154204
 10
315.4555062812036113
 20
18.9044112306837313
 10
318.8362684309125257
 20
18.1121058289518295
 10
322.219591747428808
 20
17.3447225289339215
 10
325.6056171954725755
 20
16.6036234030442387
 10
328.9944857397637747
 20
15.8901705236969892
 10
332.3863383450225228
 20
15.2057259633064099
 10
335.7813159759687096
 20
14.5516517942867001
 10
339.1795595973223953
 20
13.9293100890520893
 10
342.5812101738035835
 20
13.3400629200168002
 10
345.9864086701323913
 20
12.7852723595950497
 10
349.3952960510287085
 20
12.2663004802010498
 10
352.808013281212709
 20
11.78450935424903
 10
356.2247013254042258
 20
11.3412610541532004
 10
359.6455011483233761
 20
10.9379176523277906
 10
363.070553714690277
 20
10.5758412211870194
 10
366.4999999892248184
 20
10.2563938331451006
 10
367.7473254363870865
 20
10.1613259293147493
 10
368.995340323836615
 20
10.09076441847178
 10
370.2439733301640103
 20
10.0421741565140401
 10
371.4931531339603907
 20
10.0130199993394005
 10
372.7428084138168742
 20
10.0007668028457104
 10
373.9928678483244084
 20
10.00287942293083
 10
376.4939138956564193
 20
10.0400615364289205
 10
381.4977177041366758
 20
10.1752692218765297
 10
383.9993343227408218
 20
10.2327324881917594
 10
386.4999999892248184
 20
10.2563938331451006
  0
LWPOLYLINE
  5
47
  8
0
 62
256
370
-1
  6
CONTINUOUS
100
AcDbEntity
100
AcDbPolyline
 90
76
 70
0
 10
728.0000000026938096
 20
59.8917924884159376
 10
725.4995785291316679
 20
59.9055713813842772
 10
722.9984265027571837
 20
59.9432336883482222
 10
717.9946051480130791
 20
60.0681623159592917
 10
712.9898846513461876
 20
60.2224859146418794
 10
707.9856137256406328
 20
60.3621120277887186
 10
705.4840683246748085
 20
60.4126346345964578
 10
702.9831410837809926
 20
60.4429481987925072
 10
700.4830005920698568
 20
60.4475411633009969
 10
697.9838154386518454
 20
60.4209019710459927
 10
695.4857542126376302
 20
60.3575190649515818
 10
692.9889855031376555
 20
60.2518808879418728
 10
690.4936778992623658
 20
60.0984758829409316
 10
687.9999999901226602
 20
59.8917924928728667
 10
684.5720532318941878
 20
59.5468428147333597
 10
681.1484525781420416
 20
59.1600736899881383
 10
677.7290570641464456
 20
58.732847191052187
 10
674.3137257251869414
 20
58.2665253903404903
 10
670.9023175965436394
 20
57.7624703602680327
 10
667.4946917134964224
 20
57.2220441732497704
 10
664.0907071113250595
 20
56.6466089017007022
 10
660.6902228253095473
 20
56.0375266180358196
 10
657.2930978907295412
 20
55.396159394670093
 10
653.8991913428652651
 20
54.7238693040184785
 10
650.5083622169963746
 20
54.0220184184959678
 10
647.1204695484028662
 20
53.2919688105175666
 10
643.7353723723645089
 20
52.5350825524982312
 10
640.3529297241612994
 20
51.752721716852939
 10
636.9730006390731205
 20
50.9462483759966673
 10
633.5954441523797414
 20
50.1170246023444221
 10
630.2201192993611585
 20
49.2664124683111524
 10
626.8468851152972547
 20
48.3957740463118427
 10
623.4756006354677993
 20
47.5064714087614774
 10
620.1061248951527887
 20
46.5998666280750626
 10
613.3720357741855196
 20
44.7401989269538873
 10
606.6434900346345103
 20
42.8276675222681789
 10
599.9193599587389372
 20
40.8731689933377567
 10
593.1985178287378631
 20
38.8875999194824686
 10
579.7621865353753492
 20
34.8668364542766227
 10
573.044441936492035
 20
32.8534352215657393
 10
566.3254744124595845
 20
30.8525497612093211
 10
559.6041562455169469
 20
28.8750766525272198
 10
552.8793597179032986
 20
26.9319124748392689
 10
546.1499571118577023
 20
25.0339538074652914
 10
542.7831761176225882
 20
24.1053317211834894
 10
539.4148207096192209
 20
23.1920972297251318
 10
536.0447499231274833
 20
22.2956124055051816
 10
532.6728227934270308
 20
21.4172393209386307
 10
529.2988983557977463
 20
20.5583400484404386
 10
525.9228356455199673
 20
19.7202766604256112
 10
522.5444936978733494
 20
18.9044112293091189
 10
519.1637315481374344
 20
18.1121058275059283
 10
515.7804082315925598
 20
17.3447225274310313
 10
512.3943827835182674
 20
16.6036234014994086
 10
509.0055142391947811
 20
15.8901705221260308
 10
505.6136616339016996
 20
15.2057259617258804
 10
502.2186840029190762
 20
14.5516517927139404
 10
498.8204403815266801
 20
13.9293100875051898
 10
495.4187898050046215
 20
13.3400629185145991
 10
492.013591308632499
 20
12.7852723581571706
 10
488.6047039276904229
 20
12.2663004788478602
 10
485.1919866974579918
 20
11.7845093530016491
 10
481.7752986532153727
 20
11.3412610530335307
 10
478.3544988302423917
 20
10.9379176513584806
 10
474.9294462638188747
 20
10.5758412203914798
 10
471.4999999892248184
 20
10.2563938325475004
 10
470.2526745420591965
 20
10.1613259288025795
 10
469.0046596546073943
 20
10.0907644180589209
 10
467.7560266482782936
 20
10.0421741562129405
 10
466.5068468444807763
 20
10.0130199991610702
 10
465.2571915646240086
 20
10.0007668027997205
 10
464.0071321301165881
 20
10.0028794230253109
 10
461.5060860827858278
 20
10.0400615368230195
 10
456.5022822743101187
 20
10.1752692229043191
 10
454.0006656557080191
 20
10.2327324895306493
 10
451.4999999892248184
 20
10.25639383477594
  0
LINE
  5
48
100
AcDbEntity
100
AcDbLine
  8
0
 62
256
370
-1
  6
CONTINUOUS
 10
687.9999999901226602
 20
60.0
 30
0.0
 11
754.0000000121220864
 21
60.0
 31
0.0
  0
ARC
  5
49
100
AcDbEntity
  8
0
 62
256
370
-1
  6
CONTINUOUS
100
AcDbCircle
 10
754.0000000094275947
 20
120.0000000000002984
 30
0.0
 40
60.0000000000003126
100
AcDbArc
 50
270.0
 51
0.0
  0
LINE
  5
4A
100
AcDbEntity
100
AcDbLine
  8
0
 62
256
370
-1
  6
CONTINUOUS
 10
814.0000000094282768
 20
120.0
 30
0.0
 11
814.0000000094282768
 21
520.0
 31
0.0
  0
ARC
  5
4B
100
AcDbEntity
  8
0
 62
256
370
-1
  6
CONTINUOUS
100
AcDbCircle
 10
754.0000000094293
 20
520.0000000000012506
 30
0.0
 40
59.9999999999989768
100
AcDbArc
 50
0.0
 51
90.0
  0
LINE
  5
4C
100
AcDbEntity
100
AcDbLine
  8
0
 62
256
370
-1
  6
CONTINUOUS
 10
754.0000000121220864
 20
580.0
 30
0.0
 11
728.0000000026938096
 21
580.0
 31
0.0
  0
LINE
  5
4D
100
AcDbEntity
100
AcDbLine
  8
0
 62
256
370
-1
  6
CONTINUOUS
 10
110.0000000026937954
 20
580.0
 30
0.0
 11
79.0000000121220864
 21
580.0
 31
0.0
  0
ARC
  5
4E
100
AcDbEntity
  8
0
 62
256
370
-1
  6
CONTINUOUS
100
AcDbCircle
 10
79.000000009428021
 20
520.0
 30
0.0
 40
60.0
100
AcDbArc
 50
90.0
 51
180.0
  0
LINE
  5
4F
100
AcDbEntity
100
AcDbLine
  8
0
 62
256
370
-1
  6
CONTINUOUS
 10
19.0000000094282804
 20
520.0000000053876192
 30
0.0
 11
19.0000000094282804
 21
120.000000005387605
 31
0.0
  0
ARC
  5
50
100
AcDbEntity
  8
0
 62
256
370
-1
  6
CONTINUOUS
100
AcDbCircle
 10
79.0000000094282768
 20
120.0
 30
0.0
 40
60.0
100
AcDbArc
 50
180.0
 51
270.0
  0
LINE
  5
51
100
AcDbEntity
100
AcDbLine
  8
0
 62
256
370
-1
  6
CONTINUOUS
 10
79.0000000121220864
 20
60.0
 30
0.0
 11
149.9999999901226886
 21
60.0
 31
0.0
  0
LINE
  5
52
100
AcDbEntity
100
AcDbLine
  8
0
 62
256
370
-1
  6
CONTINUOUS
 10
81.50000000945073
 20
119.5
 30
0.0
 11
81.50000000945073
 21
520.5
 31
0.0
  0
LINE
  5
53
100
AcDbEntity
100
AcDbLine
  8
0
 62
256
370
-1
  6
CONTINUOUS
 10
756.5000000094506731
 20
520.5
 30
0.0
 11
756.5000000094506731
 21
119.5
 31
0.0
  0
CIRCLE
  5
54
100
AcDbEntity
100
AcDbCircle
  8
0
 62
256
370
-1
  6
CONTINUOUS
 10
219.000000019305503
 20
540.0
 30
0.0
 40
3.25
  0
CIRCLE
  5
55
100
AcDbEntity
100
AcDbCircle
  8
0
 62
256
370
-1
  6
CONTINUOUS
 10
618.9999999802453203
 20
540.0
 30
0.0
 40
3.25
  0
CIRCLE
  5
56
100
AcDbEntity
100
AcDbCircle
  8
0
 62
256
370
-1
  6
CONTINUOUS
 10
618.9999999407364157
 20
100.0
 30
0.0
 40
3.25
  0
CIRCLE
  5
57
100
AcDbEntity
100
AcDbCircle
  8
0
 62
256
370
-1
  6
CONTINUOUS
 10
218.9999999797965984
 20
100.0
 30
0.0
 40
3.25
  0
LINE
  5
58
100
AcDbEntity
100
AcDbLine
  8
0
 62
256
370
-1
  6
CONTINUOUS
 10
451.4999999892248184
 20
10.25639383477594
 30
0.0
 11
386.4999999892248184
 21
10.2563938331451006
 31
0.0
  0
LINE
  5
59
100
AcDbEntity
100
AcDbLine
  8
0
 62
256
370
-1
  6
CONTINUOUS
 10
81.50000000945073
 20
119.5
 30
0.0
 11
756.5000000094506731
 21
119.5
 31
0.0
  0
LINE
  5
5A
100
AcDbEntity
100
AcDbLine
  8
0
 62
256
370
-1
  6
CONTINUOUS
 10
81.50000000945073
 20
520.5
 30
0.0
 11
756.5000000094506731
 21
520.5
 31
0.0
  0
ENDSEC
  0
SECTION
  2
OBJECTS
  0
DICTIONARY
  5
C
100
AcDbDictionary
280
0
281
1
  3
ACAD_GROUP
350
D
  3
ACAD_LAYOUT
350
1A
  3
ACAD_MLINESTYLE
350
17
  3
ACAD_PLOTSETTINGS
350
19
  3
ACAD_PLOTSTYLENAME
350
E
  3
AcDbVariableDictionary
350
5B
  0
DICTIONARY
  5
D
100
AcDbDictionary
280
0
281
1
  0
ACDBDICTIONARYWDFLT
  5
E
100
AcDbDictionary
281
1
  3
Normal
350
F
100
AcDbDictionaryWithDefault
340
F
  0
ACDBPLACEHOLDER
  5
F
  0
DICTIONARY
  5
17
100
AcDbDictionary
280
0
281
1
  3
Standard
350
18
  0
MLINESTYLE
  5
18
100
AcDbMlineStyle
  2
STANDARD
 70
0
  3

 62
256
 51
90.0
 52
90.0
 71
2
 49
0.5
 62
256
  6
BYLAYER
 49
-0.5
 62
256
  6
BYLAYER
  0
DICTIONARY
  5
19
100
AcDbDictionary
280
0
281
1
  0
DICTIONARY
  5
1A
100
AcDbDictionary
281
1
  3
Layout1
350
1E
  3
Layout2
350
26
  3
Model
350
22
  0
LAYOUT
  5
1E
100
AcDbPlotSettings
  1

  2
C:\Program Files\AutoCAD 2002\plotters\DWF ePlot (optimized for plotting).pc3
  4

  6

 40
0.0
 41
0.0
 42
0.0
 43
0.0
 44
0.0
 45
0.0
 46
0.0
 47
0.0
 48
0.0
 49
0.0
140
0.0
141
0.0
142
1.0
143
1.0
 70
688
 72
0
 73
0
 74
5
  7

 75
16
147
1.0
148
0.0
149
0.0
100
AcDbLayout
  1
Layout1
 70
1
 71
1
 10
0.0
 20
0.0
 11
420.0
 21
297.0
 12
0.0
 22
0.0
 32
0.0
 14
100000000000000000000.0
 24
100000000000000000000.0
 34
100000000000000000000.0
 15
-100000000000000000000.0
 25
-100000000000000000000.0
 35
-100000000000000000000.0
146
0.0
 13
0.0
 23
0.0
 33
0.0
 16
1.0
 26
0.0
 36
0.0
 17
0.0
 27
1.0
 37
0.0
 76
0
330
1B
  0
LAYOUT
  5
22
100
AcDbPlotSettings
  1

  2
C:\Program Files\AutoCAD 2002\plotters\DWF ePlot (optimized for plotting).pc3
  4

  6

 40
0.0
 41
0.0
 42
0.0
 43
0.0
 44
0.0
 45
0.0
 46
0.0
 47
0.0
 48
0.0
 49
0.0
140
0.0
141
0.0
142
1.0
143
1.0
 70
1712
 72
0
 73
0
 74
0
  7

 75
0
147
1.0
148
0.0
149
0.0
100
AcDbLayout
  1
Model
 70
1
 71
0
 10
0.0
 20
0.0
 11
12.0
 21
9.0
 12
0.0
 22
0.0
 32
0.0
 14
0.0
 24
0.0
 34
0.0
 15
0.0
 25
0.0
 35
0.0
146
0.0
 13
0.0
 23
0.0
 33
0.0
 16
1.0
 26
0.0
 36
0.0
 17
0.0
 27
1.0
 37
0.0
 76
0
330
1F
  0
LAYOUT
  5
26
100
AcDbPlotSettings
  1

  2
C:\Program Files\AutoCAD 2002\plotters\DWF ePlot (optimized for plotting).pc3
  4

  6

 40
0.0
 41
0.0
 42
0.0
 43
0.0
 44
0.0
 45
0.0
 46
0.0
 47
0.0
 48
0.0
 49
0.0
140
0.0
141
0.0
142
1.0
143
1.0
 70
688
 72
0
 73
0
 74
5
  7

 75
16
147
1.0
148
0.0
149
0.0
100
AcDbLayout
  1
Layout2
 70
1
 71
2
 10
0.0
 20
0.0
 11
12.0
 21
9.0
 12
0.0
 22
0.0
 32
0.0
 14
0.0
 24
0.0
 34
0.0
 15
0.0
 25
0.0
 35
0.0
146
0.0
 13
0.0
 23
0.0
 33
0.0
 16
1.0
 26
0.0
 36
0.0
 17
0.0
 27
1.0
 37
0.0
 76
0
330
23
  0
DICTIONARY
  5
5B
100
AcDbDictionary
281
1
  3
DIMASSOC
350
5D
  3
HIDETEXT
350
5C
  0
DICTIONARYVAR
  5
5C
100
DictionaryVariables
280
0
  1
2
  0
DICTIONARYVAR
  5
5D
100
DictionaryVariables
280
0
  1
1
  0
ENDSEC
  0
EOF
