999
dxflib 2.2.0.0
  0
SECTION
  2
HEADER
  9
$ACADVER
  1
AC1015
  9
$HANDSEED
  5
FFFF
  9
$DIMLIM
 70
0
  9
$DIMTIX
 70
0
  9
$AUNITS
 70
0
  9
$QTEXTMODE
 70
0
  9
$COORDS
 70
1
  9
$USERR1
 40
0.0
  9
$DIMALTU
 70
2
  9
$USERR2
 40
0.0
  9
$USERR3
 40
0.0
  9
$USERR4
 40
0.0
  9
$LIMMAX
 10
180.0
 20
180.0
  9
$USERR5
 40
0.0
  9
$PELEVATION
 40
0.0
  9
$DIMALTZ
 70
0
  9
$DIMFIT
 70
5
  9
$TILEMODE
 70
1
  9
$PEXTMIN
 10
100000000000000000000.0
 20
100000000000000000000.0
 30
100000000000000000000.0
  9
$TDUSRTIMER
 40
2456828.617870369926095
  9
$DWGCODEPAGE
  3
ansi_1252
  9
$DIMUNIT
 70
2
  9
$DIMSOXD
 70
0
  9
$DIMTZIN
 70
0
  9
$SPLINETYPE
 70
6
  9
$DIMLFAC
 40
1.0
  9
$DIMSE1
 70
0
  9
$FILLETRAD
 40
0.5
  9
$DIMSE2
 70
0
  9
$TEXTSTYLE
  7
STANDARD
  9
$DIMTSZ
 40
0.0
  9
$PUCSXDIR
 10
1.0
 20
0.0
 30
0.0
  9
$DIMTXSTY
  7
STANDARD
  9
$PLIMMAX
 10
0.0
 20
0.0
  9
$DIMTM
 40
0.0
  9
$UCSORG
 10
0.0
 20
0.0
 30
0.0
  9
$DIMTP
 40
0.0
  9
$PSLTSCALE
 70
1
  9
$ANGBASE
 50
0.0
  9
$PUCSYDIR
 10
0.0
 20
1.0
 30
0.0
  9
$DIMASZ
 40
0.18
  9
$INSBASE
 10
0.0
 20
0.0
 30
0.0
  9
$UNITMODE
 70
0
  9
$EXTMAX
 10
160.0
 20
170.0
 30
0.0
  9
$ELEVATION
 40
0.0
  9
$TDCREATE
 40
2456828.617615741211921
  9
$DIMDEC
 70
4
  9
$CELTYPE
  6
BYBLOCK
  9
$MENU
  1
.
  9
$ANGDIR
 70
0
  9
$DIMALTTD
 70
2
  9
$TREEDEPTH
 70
3020
  9
$LTSCALE
 40
10.0
  9
$TDUPDATE
 40
2456828.6180555438622832
  9
$DIMTOLJ
 70
1
  9
$DIMCEN
 40
0.09
  9
$DIMTVP
 40
0.0
  9
$TRACEWID
 40
0.05
  9
$CMLSTYLE
  2
STANDARD
  9
$DISPSILH
 70
0
  9
$DIMSTYLE
  2
STANDARD
  9
$SKETCHINC
 40
0.1
  9
$FILLMODE
 70
1
  9
$PLINEGEN
 70
0
  9
$THICKNESS
 40
0.0
  9
$PUCSORG
 10
0.0
 20
0.0
 30
0.0
  9
$CELTSCALE
 40
1.0
  9
$DIMALTTZ
 70
0
  9
$INSUNITS
 70
4
  9
$PLINEWID
 40
0.0
  9
$PEXTMAX
 10
-100000000000000000000.0
 20
-100000000000000000000.0
 30
-100000000000000000000.0
  9
$DIMJUST
 70
0
  9
$UCSYDIR
 10
0.0
 20
1.0
 30
0.0
  9
$PDSIZE
 40
0.0
  9
$ATTDIA
 70
0
  9
$HANDLING
 70
1
  9
$DIMUPT
 70
0
  9
$DIMTAD
 70
0
  9
$UCSXDIR
 10
1.0
 20
0.0
 30
0.0
  9
$MAXACTVP
 70
64
  9
$DIMSAH
 70
0
  9
$USERI1
 70
0
  9
$USERI2
 70
0
  9
$USERI3
 70
0
  9
$SKPOLY
 70
0
  9
$USERI4
 70
0
  9
$USERI5
 70
0
  9
$LIMMIN
 10
0.0
 20
0.0
  9
$MIRRTEXT
 70
1
  9
$TEXTSIZE
 40
0.2
  9
$DRAGMODE
 70
2
  9
$DIMGAP
 40
0.09
  9
$LUPREC
 70
4
  9
$CECOLOR
 62
256
  9
$DIMSD1
 70
0
  9
$DIMSD2
 70
0
  9
$WORLDVIEW
 70
1
  9
$DELOBJ
 70
1
  9
$PLIMCHECK
 70
0
  9
$DIMTFAC
 40
1.0
  9
$CMLJUST
 70
0
  9
$USRTIMER
 70
1
  9
$SURFU
 70
6
  9
$SURFV
 70
6
  9
$ATTREQ
 70
1
  9
$DIMASO
 70
1
  9
$DIMDLE
 40
0.0
  9
$EXTMIN
 10
10.0
 20
20.0
 30
0.0
  9
$DIMDLI
 40
0.38
  9
$LUNITS
 70
2
  9
$DIMCLRD
 70
0
  9
$SHADEDIF
 70
70
  9
$DIMCLRE
 70
0
  9
$SPLINESEGS
 70
8
  9
$DIMRND
 40
0.0
  9
$DIMALT
 70
0
  9
$DIMCLRT
 70
0
  9
$DIMTOH
 70
1
  9
$VISRETAIN
 70
1
  9
$SAVEIMAGES
 70
1
  9
$SHADEDGE
 70
3
  9
$DIMTOL
 70
0
  9
$SURFTYPE
 70
6
  9
$CHAMFERA
 40
10.0
  9
$SURFTAB1
 70
6
  9
$CHAMFERB
 40
10.0
  9
$SURFTAB2
 70
6
  9
$CHAMFERC
 40
0.0
  9
$AUPREC
 70
0
  9
$CHAMFERD
 40
0.0
  9
$DIMTDEC
 70
4
  9
$OSMODE
 70
511
  9
$PDMODE
 70
0
  9
$SPLFRAME
 70
0
  9
$PLIMMIN
 10
0.0
 20
0.0
  9
$LIMCHECK
 70
0
  9
$PINSBASE
 10
0.0
 20
0.0
 30
0.0
  9
$ORTHOMODE
 70
0
  9
$CLAYER
  8
LAYER_1
  9
$DIMSHO
 70
1
  9
$DIMTOFL
 70
0
  9
$DIMTXT
 40
0.18
  9
$DIMEXE
 40
0.18
  9
$TDINDWG
 40
0.0000000116
  9
$REGENMODE
 70
1
  9
$ATTMODE
 70
1
  9
$PICKSTYLE
 70
1
  9
$CMLSCALE
 40
1.0
  9
$DIMTIH
 70
1
  9
$DIMZIN
 70
0
  9
$DIMSCALE
 40
1.0
  9
$DIMALTD
 70
2
  9
$DIMAUNIT
 70
0
  9
$DIMALTF
 40
25.3999999999999986
  9
$DIMEXO
 40
0.0625
  0
ENDSEC
  0
SECTION
  2
TABLES
  0
TABLE
  2
VPORT
  5
8
100
AcDbSymbolTable
 70
1
  0
VPORT
  5
30
100
AcDbSymbolTableRecord
100
AcDbViewportTableRecord
  2
*Active
 70
0
 10
0.0
 20
0.0
 11
1.0
 21
1.0
 12
286.3055555555554861
 22
148.5
 13
0.0
 23
0.0
 14
10.0
 24
10.0
 15
10.0
 25
10.0
 16
0.0
 26
0.0
 36
1.0
 17
0.0
 27
0.0
 37
0.0
 40
297.0
 41
1.92798353909465
 42
50.0
 43
0.0
 44
0.0
 50
0.0
 51
0.0
 71
0
 72
100
 73
1
 74
3
 75
1
 76
1
 77
0
 78
0
281
0
 65
1
110
0.0
120
0.0
130
0.0
111
1.0
121
0.0
131
0.0
112
0.0
122
1.0
132
0.0
 79
0
146
0.0
  0
ENDTAB
  0
TABLE
  2
LTYPE
  5
5
100
AcDbSymbolTable
 70
21
  0
LTYPE
  5
14
100
AcDbSymbolTableRecord
100
AcDbLinetypeTableRecord
  2
ByBlock
 70
0
  3

 72
65
 73
0
 40
0.0
  0
LTYPE
  5
15
100
AcDbSymbolTableRecord
100
AcDbLinetypeTableRecord
  2
ByLayer
 70
0
  3

 72
65
 73
0
 40
0.0
  0
LTYPE
  5
16
100
AcDbSymbolTableRecord
100
AcDbLinetypeTableRecord
  2
CONTINUOUS
 70
0
  3
Solid line
 72
65
 73
0
 40
0.0
  0
LTYPE
  5
31
100
AcDbSymbolTableRecord
100
AcDbLinetypeTableRecord
  2
DOT
 70
0
  3
Dot . . . . . . . . . . . . . . . . . . . . . .
 72
65
 73
2
 40
6.3499999999999996
 49
0.0
 74
0
 49
-6.3499999999999996
 74
0
  0
LTYPE
  5
32
100
AcDbSymbolTableRecord
100
AcDbLinetypeTableRecord
  2
DOT2
 70
0
  3
Dot (.5x) .....................................
 72
65
 73
2
 40
3.1749999999999998
 49
0.0
 74
0
 49
-3.1749999999999998
 74
0
  0
LTYPE
  5
33
100
AcDbSymbolTableRecord
100
AcDbLinetypeTableRecord
  2
DOTX2
 70
0
  3
Dot (2x) .  .  .  .  .  .  .  .  .  .  .  .  .
 72
65
 73
2
 40
12.6999999999999993
 49
0.0
 74
0
 49
-12.6999999999999993
 74
0
  0
LTYPE
  5
34
100
AcDbSymbolTableRecord
100
AcDbLinetypeTableRecord
  2
DASHED
 70
0
  3
Dashed __ __ __ __ __ __ __ __ __ __ __ __ __ _
 72
65
 73
2
 40
19.0500000000000007
 49
12.6999999999999993
 74
0
 49
-6.3499999999999996
 74
0
  0
LTYPE
  5
35
100
AcDbSymbolTableRecord
100
AcDbLinetypeTableRecord
  2
DASHED2
 70
0
  3
Dashed (.5x) _ _ _ _ _ _ _ _ _ _ _ _ _ _ _ _ _
 72
65
 73
2
 40
9.5250000000000004
 49
6.3499999999999996
 74
0
 49
-3.1749999999999998
 74
0
  0
LTYPE
  5
36
100
AcDbSymbolTableRecord
100
AcDbLinetypeTableRecord
  2
DASHEDX2
 70
0
  3
Dashed (2x) ____  ____  ____  ____  ____  ___
 72
65
 73
2
 40
38.1000000000000014
 49
25.3999999999999986
 74
0
 49
-12.6999999999999993
 74
0
  0
LTYPE
  5
37
100
AcDbSymbolTableRecord
100
AcDbLinetypeTableRecord
  2
DASHDOT
 70
0
  3
Dash dot __ . __ . __ . __ . __ . __ . __ . __
 72
65
 73
4
 40
25.3999999999999986
 49
12.6999999999999993
 74
0
 49
-6.3499999999999996
 74
0
 49
0.0
 74
0
 49
-6.3499999999999996
 74
0
  0
LTYPE
  5
38
100
AcDbSymbolTableRecord
100
AcDbLinetypeTableRecord
  2
DASHDOT2
 70
0
  3
Dash dot (.5x) _._._._._._._._._._._._._._._.
 72
65
 73
4
 40
12.6999999999999993
 49
6.3499999999999996
 74
0
 49
-3.1749999999999998
 74
0
 49
0.0
 74
0
 49
-3.1749999999999998
 74
0
  0
LTYPE
  5
39
100
AcDbSymbolTableRecord
100
AcDbLinetypeTableRecord
  2
DASHDOTX2
 70
0
  3
Dash dot (2x) ____  .  ____  .  ____  .  ___
 72
65
 73
4
 40
50.7999999999999972
 49
25.3999999999999986
 74
0
 49
-12.6999999999999993
 74
0
 49
0.0
 74
0
 49
-12.6999999999999993
 74
0
  0
LTYPE
  5
3A
100
AcDbSymbolTableRecord
100
AcDbLinetypeTableRecord
  2
DIVIDE
 70
0
  3
Divide ____ . . ____ . . ____ . . ____ . . ____
 72
65
 73
6
 40
31.75
 49
12.6999999999999993
 74
0
 49
-6.3499999999999996
 74
0
 49
0.0
 74
0
 49
-6.3499999999999996
 74
0
 49
0.0
 74
0
 49
-6.3499999999999996
 74
0
  0
LTYPE
  5
3B
100
AcDbSymbolTableRecord
100
AcDbLinetypeTableRecord
  2
DIVIDE2
 70
0
  3
Divide (.5x) __..__..__..__..__..__..__..__.._
 72
65
 73
6
 40
15.875
 49
6.3499999999999996
 74
0
 49
-3.1749999999999998
 74
0
 49
0.0
 74
0
 49
-3.1749999999999998
 74
0
 49
0.0
 74
0
 49
-3.1749999999999998
 74
0
  0
LTYPE
  5
3C
100
AcDbSymbolTableRecord
100
AcDbLinetypeTableRecord
  2
DIVIDEX2
 70
0
  3
Divide (2x) ________  .  .  ________  .  .  _
 72
65
 73
6
 40
63.5
 49
25.3999999999999986
 74
0
 49
-12.6999999999999993
 74
0
 49
0.0
 74
0
 49
-12.6999999999999993
 74
0
 49
0.0
 74
0
 49
-12.6999999999999993
 74
0
  0
LTYPE
  5
3D
100
AcDbSymbolTableRecord
100
AcDbLinetypeTableRecord
  2
CENTER
 70
0
  3
Center ____ _ ____ _ ____ _ ____ _ ____ _ ____
 72
65
 73
4
 40
50.7999999999999972
 49
31.75
 74
0
 49
-6.3499999999999996
 74
0
 49
6.3499999999999996
 74
0
 49
-6.3499999999999996
 74
0
  0
LTYPE
  5
3E
100
AcDbSymbolTableRecord
100
AcDbLinetypeTableRecord
  2
CENTER2
 70
0
  3
Center (.5x) ___ _ ___ _ ___ _ ___ _ ___ _ ___
 72
65
 73
4
 40
28.5749999999999993
 49
19.0500000000000007
 74
0
 49
-3.1749999999999998
 74
0
 49
3.1749999999999998
 74
0
 49
-3.1749999999999998
 74
0
  0
LTYPE
  5
3F
100
AcDbSymbolTableRecord
100
AcDbLinetypeTableRecord
  2
CENTERX2
 70
0
  3
Center (2x) ________  __  ________  __  _____
 72
65
 73
4
 40
101.5999999999999943
 49
63.5
 74
0
 49
-12.6999999999999993
 74
0
 49
12.6999999999999993
 74
0
 49
-12.6999999999999993
 74
0
  0
LTYPE
  5
40
100
AcDbSymbolTableRecord
100
AcDbLinetypeTableRecord
  2
BORDER
 70
0
  3
Border __ __ . __ __ . __ __ . __ __ . __ __ .
 72
65
 73
6
 40
44.4500000000000028
 49
12.6999999999999993
 74
0
 49
-6.3499999999999996
 74
0
 49
12.6999999999999993
 74
0
 49
-6.3499999999999996
 74
0
 49
0.0
 74
0
 49
-6.3499999999999996
 74
0
  0
LTYPE
  5
41
100
AcDbSymbolTableRecord
100
AcDbLinetypeTableRecord
  2
BORDER2
 70
0
  3
Border (.5x) __.__.__.__.__.__.__.__.__.__.__.
 72
65
 73
6
 40
22.2250000000000014
 49
6.3499999999999996
 74
0
 49
-3.1749999999999998
 74
0
 49
6.3499999999999996
 74
0
 49
-3.1749999999999998
 74
0
 49
0.0
 74
0
 49
-3.1749999999999998
 74
0
  0
LTYPE
  5
42
100
AcDbSymbolTableRecord
100
AcDbLinetypeTableRecord
  2
BORDERX2
 70
0
  3
Border (2x) ____  ____  .  ____  ____  .  ___
 72
65
 73
6
 40
88.9000000000000057
 49
25.3999999999999986
 74
0
 49
-12.6999999999999993
 74
0
 49
25.3999999999999986
 74
0
 49
-12.6999999999999993
 74
0
 49
0.0
 74
0
 49
-12.6999999999999993
 74
0
  0
ENDTAB
  0
TABLE
  2
LAYER
  5
2
100
AcDbSymbolTable
 70
1
  0
LAYER
  5
10
100
AcDbSymbolTableRecord
100
AcDbLayerTableRecord
  2
0
 70
0
 62
7
  6
CONTINUOUS
390
F
  0
ENDTAB
  0
TABLE
  2
STYLE
  5
3
100
AcDbSymbolTable
 70
1
  0
STYLE
  5
11
100
AcDbSymbolTableRecord
100
AcDbTextStyleTableRecord
  2
Standard
 70
0
 40
0.0
 41
0.75
 50
0.0
 71
0
 42
2.5
  3
txt
  4

  0
ENDTAB
  0
TABLE
  2
VIEW
  5
6
100
AcDbSymbolTable
 70
0
  0
ENDTAB
  0
TABLE
  2
UCS
  5
7
100
AcDbSymbolTable
 70
0
  0
ENDTAB
  0
TABLE
  2
APPID
  5
9
100
AcDbSymbolTable
 70
1
  0
APPID
  5
12
100
AcDbSymbolTableRecord
100
AcDbRegAppTableRecord
  2
ACAD
 70
0
  0
ENDTAB
  0
TABLE
  2
DIMSTYLE
  5
A
100
AcDbSymbolTable
 70
1
100
AcDbDimStyleTable
 71
0
  0
DIMSTYLE
105
27
100
AcDbSymbolTableRecord
100
AcDbDimStyleTableRecord
  2
Standard
 41
0.18
 42
0.0625
 43
3.75
 44
0.18
 70
0
 73
0
 74
0
 77
1
 78
8
140
0.18
141
2.5
143
0.03937007874016
147
0.09
171
3
172
1
271
2
272
2
274
3
278
44
283
0
284
8
340
11
  0
ENDTAB
  0
TABLE
  2
BLOCK_RECORD
  5
1
100
AcDbSymbolTable
 70
1
  0
BLOCK_RECORD
  5
1F
100
AcDbSymbolTableRecord
100
AcDbBlockTableRecord
  2
*Model_Space
340
22
  0
BLOCK_RECORD
  5
1B
100
AcDbSymbolTableRecord
100
AcDbBlockTableRecord
  2
*Paper_Space
340
1E
  0
BLOCK_RECORD
  5
23
100
AcDbSymbolTableRecord
100
AcDbBlockTableRecord
  2
*Paper_Space0
340
26
  0
ENDTAB
  0
ENDSEC
  0
SECTION
  2
BLOCKS
  0
BLOCK
  5
20
100
AcDbEntity
  8
0
100
AcDbBlockBegin
  2
*Model_Space
 70
0
 10
0.0
 20
0.0
 30
0.0
  3
*Model_Space
  1

  0
ENDBLK
  5
21
100
AcDbEntity
  8
0
100
AcDbBlockEnd
  0
BLOCK
  5
1C
100
AcDbEntity
 67
1
  8
0
100
AcDbBlockBegin
  2
*Paper_Space
 70
0
 10
0.0
 20
0.0
 30
0.0
  3
*Paper_Space
  1

  0
ENDBLK
  5
1D
100
AcDbEntity
 67
1
  8
0
100
AcDbBlockEnd
  0
BLOCK
  5
24
100
AcDbEntity
  8
0
100
AcDbBlockBegin
  2
*Paper_Space0
 70
0
 10
0.0
 20
0.0
 30
0.0
  3
*Paper_Space0
  1

  0
ENDBLK
  5
25
100
AcDbEntity
  8
0
100
AcDbBlockEnd
  0
ENDSEC
  0
SECTION
  2
ENTITIES
  0
ARC
  5
43
100
AcDbEntity
  8
0
 62
256
370
-1
  6
CONTINUOUS
100
AcDbCircle
 10
120.0
 20
75.0
 30
0.0
 40
7.4999999999999574
100
AcDbArc
 50
32.2163575001166933
 51
99.5940682297075028
  0
ARC
  5
44
100
AcDbEntity
  8
0
 62
256
370
-1
  6
CONTINUOUS
100
AcDbCircle
 10
75.0
 20
120.0
 30
0.0
 40
7.4999999999999636
100
AcDbArc
 50
122.2163575050895901
 51
189.5940682219899998
  0
ARC
  5
45
100
AcDbEntity
  8
0
 62
256
370
-1
  6
CONTINUOUS
100
AcDbCircle
 10
30.0
 20
75.0
 30
0.0
 40
7.4999999999999822
100
AcDbArc
 50
211.632369439384405
 51
279.5940682245623066
  0
ARC
  5
46
100
AcDbEntity
  8
0
 62
256
370
-1
  6
CONTINUOUS
100
AcDbCircle
 10
75.0
 20
30.0
 30
0.0
 40
7.4999999999999893
100
AcDbArc
 50
302.2163575017739845
 51
9.5940682271347555
  0
ARC
  5
47
100
AcDbEntity
  8
0
 62
256
370
-1
  6
CONTINUOUS
100
AcDbCircle
 10
43.1801948466053531
 20
43.1801948466053673
 30
0.0
 40
7.5000000000000044
100
AcDbArc
 50
256.3991404501185229
 51
324.5940682258486731
  0
ARC
  5
48
100
AcDbEntity
  8
0
 62
256
370
-1
  6
CONTINUOUS
100
AcDbCircle
 10
43.1801948466053531
 20
106.8198051533946966
 30
0.0
 40
7.4999999999999547
100
AcDbArc
 50
167.2163575042604862
 51
234.5940682232765369
  0
ARC
  5
49
100
AcDbEntity
  8
0
 62
256
370
-1
  6
CONTINUOUS
100
AcDbCircle
 10
106.8198051533946966
 20
106.8198051533946966
 30
0.0
 40
7.4999999999999227
100
AcDbArc
 50
77.2163575162080207
 51
144.5940682309937131
  0
ARC
  5
4A
100
AcDbEntity
  8
0
 62
256
370
-1
  6
CONTINUOUS
100
AcDbCircle
 10
106.8198051533946966
 20
43.1801948466053673
 30
0.0
 40
7.4999999999998854
100
AcDbArc
 50
347.2163575009452074
 51
54.5940682181320724
  0
LINE
  5
4B
100
AcDbEntity
100
AcDbLine
  8
0
 62
256
370
-1
  6
CONTINUOUS
 10
81.1130086423211765
 20
70.6547583106451924
 30
0.0
 11
111.1650468438471933
 21
49.2932034881461902
 31
0.0
  0
LINE
  5
4C
100
AcDbEntity
100
AcDbLine
  8
0
 62
256
370
-1
  6
CONTINUOUS
 10
79.3452416893548502
 20
68.8869913576788377
 30
0.0
 11
99.455183147546407
 21
40.5957581607626992
 31
0.0
  0
LINE
  5
4D
100
AcDbEntity
100
AcDbLine
  8
0
 62
256
370
-1
  6
CONTINUOUS
 10
76.2500000000000284
 20
67.6049002711253308
 30
0.0
 11
82.3950997290428973
 21
31.2499999990039328
 31
0.0
  0
LINE
  5
4E
100
AcDbEntity
100
AcDbLine
  8
0
 62
256
370
-1
  6
CONTINUOUS
 10
73.75
 20
67.6049002711255014
 30
0.0
 11
67.9649531326535339
 21
33.3801014549333672
 31
0.0
  0
LINE
  5
4F
100
AcDbEntity
100
AcDbLine
  8
0
 62
256
370
-1
  6
CONTINUOUS
 10
70.6547583106452635
 20
68.8869913576789088
 30
0.0
 11
49.2932034881461902
 21
38.834953156152757
 31
0.0
  0
LINE
  5
50
100
AcDbEntity
100
AcDbLine
  8
0
 62
256
370
-1
  6
CONTINUOUS
 10
68.886991357678852
 20
70.6547583106451924
 30
0.0
 11
40.650531812751133
 21
50.5837509960192335
 31
0.0
  0
LINE
  5
51
100
AcDbEntity
100
AcDbLine
  8
0
 62
256
370
-1
  6
CONTINUOUS
 10
67.6049002711255014
 20
73.7499999999999716
 30
0.0
 11
31.2499999993359694
 21
67.604900271013264
 31
0.0
  0
LINE
  5
52
100
AcDbEntity
100
AcDbLine
  8
0
 62
256
370
-1
  6
CONTINUOUS
 10
67.6049002711255014
 20
76.2500000000000142
 30
0.0
 11
33.4274115063317367
 21
82.027050009100293
 31
0.0
  0
LINE
  5
53
100
AcDbEntity
100
AcDbLine
  8
0
 62
256
370
-1
  6
CONTINUOUS
 10
68.886991357678852
 20
79.345241689354765
 30
0.0
 11
38.8349531572505668
 21
100.7067965110735059
 31
0.0
  0
LINE
  5
54
100
AcDbEntity
100
AcDbLine
  8
0
 62
256
370
-1
  6
CONTINUOUS
 10
70.6547583106451498
 20
81.1130086423212049
 30
0.0
 11
50.5448168520517811
 21
109.4042418398026086
 31
0.0
  0
LINE
  5
55
100
AcDbEntity
100
AcDbLine
  8
0
 62
256
370
-1
  6
CONTINUOUS
 10
73.75
 20
82.3950997288744986
 30
0.0
 11
67.6049002710693685
 21
118.750000000331994
 31
0.0
  0
LINE
  5
56
100
AcDbEntity
100
AcDbLine
  8
0
 62
256
370
-1
  6
CONTINUOUS
 10
76.2500000000000284
 20
82.3950997288744986
 30
0.0
 11
82.0350468674620288
 21
116.6198985457504875
 31
0.0
  0
LINE
  5
57
100
AcDbEntity
100
AcDbLine
  8
0
 62
256
370
-1
  6
CONTINUOUS
 10
79.3452416893548502
 20
81.1130086423212049
 30
0.0
 11
100.7067965110735059
 21
111.1650468427494047
 31
0.0
  0
LINE
  5
58
100
AcDbEntity
100
AcDbLine
  8
0
 62
256
370
-1
  6
CONTINUOUS
 10
81.1130086423211765
 20
79.345241689354765
 30
0.0
 11
109.4042418400853052
 21
99.455183148149203
 31
0.0
  0
LINE
  5
59
100
AcDbEntity
100
AcDbLine
  8
0
 62
256
370
-1
  6
CONTINUOUS
 10
82.3950997288744986
 20
76.2500000000000142
 30
0.0
 11
118.7499999999998863
 21
82.3950997288744986
 31
0.0
  0
LINE
  5
5A
100
AcDbEntity
100
AcDbLine
  8
0
 62
256
370
-1
  6
CONTINUOUS
 10
82.3950997288744986
 20
73.7499999999999716
 30
0.0
 11
116.6198985447247054
 21
67.9649531327113721
 31
0.0
  0
ARC
  5
5B
100
AcDbEntity
  8
0
 62
256
370
-1
  6
CONTINUOUS
100
AcDbCircle
 10
75.0
 20
75.0
 30
0.0
 40
7.4999999999999174
100
AcDbArc
 50
234.594068223276139
 51
260.4059317702929093
  0
ARC
  5
5C
100
AcDbEntity
  8
0
 62
256
370
-1
  6
CONTINUOUS
100
AcDbCircle
 10
75.0
 20
75.0
 30
0.0
 40
7.5000000000001519
100
AcDbArc
 50
279.5940682245623066
 51
305.4059317715793895
  0
ARC
  5
5D
100
AcDbEntity
  8
0
 62
256
370
-1
  6
CONTINUOUS
100
AcDbCircle
 10
75.0
 20
75.0
 30
0.0
 40
7.5000000000000284
100
AcDbArc
 50
324.5940682258483889
 51
350.405931772865074
  0
ARC
  5
5E
100
AcDbEntity
  8
0
 62
256
370
-1
  6
CONTINUOUS
100
AcDbCircle
 10
75.0
 20
75.0
 30
0.0
 40
7.4999999999999813
100
AcDbArc
 50
9.5940682271348141
 51
35.4059317741512771
  0
ARC
  5
5F
100
AcDbEntity
  8
0
 62
256
370
-1
  6
CONTINUOUS
100
AcDbCircle
 10
75.0
 20
75.0
 30
0.0
 40
7.5000000000000986
100
AcDbArc
 50
54.5940682284208165
 51
80.4059317754374945
  0
ARC
  5
60
100
AcDbEntity
  8
0
 62
256
370
-1
  6
CONTINUOUS
100
AcDbCircle
 10
75.0
 20
75.0
 30
0.0
 40
7.5000000000000071
100
AcDbArc
 50
99.5940682297070481
 51
125.4059317767239037
  0
ARC
  5
61
100
AcDbEntity
  8
0
 62
256
370
-1
  6
CONTINUOUS
100
AcDbCircle
 10
75.0
 20
75.0
 30
0.0
 40
7.4999999999999796
100
AcDbArc
 50
144.5940682309932868
 51
170.4059317780100002
  0
ARC
  5
62
100
AcDbEntity
  8
0
 62
256
370
-1
  6
CONTINUOUS
100
AcDbCircle
 10
75.0
 20
75.0
 30
0.0
 40
7.4999999999999831
100
AcDbArc
 50
189.5940682219901987
 51
215.4059317690069122
  0
LINE
  5
63
100
AcDbEntity
100
AcDbLine
  8
0
 62
256
370
-1
  6
CONTINUOUS
 10
71.0016162303690237
 20
126.3453074969422119
 30
0.0
 11
92.8327254102049011
 21
140.1017964763202883
 31
0.0
  0
LINE
  5
64
100
AcDbEntity
100
AcDbLine
  8
0
 62
256
370
-1
  6
CONTINUOUS
 10
100.6152145923149988
 20
137.4508669386555084
 30
0.0
 11
82.0350468674620288
 21
116.6198985457504875
 31
0.0
  0
LINE
  5
65
100
AcDbEntity
100
AcDbLine
  8
0
 62
256
370
-1
  6
CONTINUOUS
 10
108.4793308343206064
 20
114.1338993908478869
 30
0.0
 11
133.6435628197868084
 21
108.42428069236081
 31
0.0
  0
LINE
  5
66
100
AcDbEntity
100
AcDbLine
  8
0
 62
256
370
-1
  6
CONTINUOUS
 10
137.2721234425511909
 20
101.0467395647836071
 30
0.0
 11
109.4042418400853052
 21
99.455183148149203
 31
0.0
  0
LINE
  5
67
100
AcDbEntity
100
AcDbLine
  8
0
 62
256
370
-1
  6
CONTINUOUS
 10
126.345307497109701
 20
78.9983837693651196
 30
0.0
 11
140.1017964742736126
 21
57.1672745823233015
 31
0.0
  0
LINE
  5
68
100
AcDbEntity
100
AcDbLine
  8
0
 62
256
370
-1
  6
CONTINUOUS
 10
116.6198985447247054
 20
67.9649531327113721
 30
0.0
 11
137.4508669355554105
 21
49.3847854001267734
 31
0.0
  0
LINE
  5
69
100
AcDbEntity
100
AcDbLine
  8
0
 62
256
370
-1
  6
CONTINUOUS
 10
114.1338993904803942
 20
41.5206691640595125
 30
0.0
 11
108.4242806856301939
 21
16.3564371763771419
 31
0.0
  0
LINE
  5
6A
100
AcDbEntity
100
AcDbLine
  8
0
 62
256
370
-1
  6
CONTINUOUS
 10
99.455183147546407
 20
40.5957581607626992
 30
0.0
 11
101.046739557246994
 21
12.7278765542964578
 31
0.0
  0
LINE
  5
6B
100
AcDbEntity
100
AcDbLine
  8
0
 62
256
370
-1
  6
CONTINUOUS
 10
78.9983837698335662
 20
23.6546925031854229
 30
0.0
 11
57.1672745848140664
 21
9.8982035250441704
 31
0.0
  0
LINE
  5
6C
100
AcDbEntity
100
AcDbLine
  8
0
 62
256
370
-1
  6
CONTINUOUS
 10
67.9649531326535339
 20
33.3801014549333672
 30
0.0
 11
49.3847854026461732
 21
12.5491330634112899
 31
0.0
  0
LINE
  5
6D
100
AcDbEntity
100
AcDbLine
  8
0
 62
256
370
-1
  6
CONTINUOUS
 10
41.4165196388976113
 20
35.8905137999671098
 30
0.0
 11
16.1091220354004498
 21
42.0134195079477877
 31
0.0
  0
LINE
  5
6E
100
AcDbEntity
100
AcDbLine
  8
0
 62
256
370
-1
  6
CONTINUOUS
 10
40.650531812751133
 20
50.5837509960192335
 30
0.0
 11
12.5253281197888988
 21
49.4428997446901946
 31
0.0
  0
LINE
  5
6F
100
AcDbEntity
100
AcDbLine
  8
0
 62
256
370
-1
  6
CONTINUOUS
 10
23.6142692202566025
 20
71.0664974375707459
 30
0.0
 11
9.9938261442154896
 21
93.1782111504822979
 31
0.0
  0
LINE
  5
70
100
AcDbEntity
100
AcDbLine
  8
0
 62
256
370
-1
  6
CONTINUOUS
 10
33.4274115063317367
 20
82.027050009100293
 30
0.0
 11
12.6935116658869696
 21
100.9644278094285994
 31
0.0
  0
LINE
  5
71
100
AcDbEntity
100
AcDbLine
  8
0
 62
256
370
-1
  6
CONTINUOUS
 10
35.8661006095726478
 20
108.479330836174114
 30
0.0
 11
41.5757193098826434
 21
133.6435628210653874
 31
0.0
  0
LINE
  5
72
100
AcDbEntity
100
AcDbLine
  8
0
 62
256
370
-1
  6
CONTINUOUS
 10
50.5448168520517811
 20
109.4042418398026086
 30
0.0
 11
48.953260437728602
 21
137.2721234436019984
 31
0.0
  0
ARC
  5
73
100
AcDbEntity
  8
0
 62
256
370
-1
  6
CONTINUOUS
100
AcDbCircle
 10
75.0
 20
75.0
 30
0.0
 40
67.4999999999999574
100
AcDbArc
 50
209.2545207281015109
 51
247.6982349837547872
  0
ARC
  5
74
100
AcDbEntity
  8
0
 62
256
370
-1
  6
CONTINUOUS
100
AcDbCircle
 10
75.0
 20
75.0
 30
0.0
 40
67.4999999999999289
100
AcDbArc
 50
254.681259611208759
 51
292.6982349838852997
  0
ARC
  5
75
100
AcDbEntity
  8
0
 62
256
370
-1
  6
CONTINUOUS
100
AcDbCircle
 10
75.0
 20
75.0
 30
0.0
 40
67.4999999999999574
100
AcDbArc
 50
299.6812596113989002
 51
337.6982349840158122
  0
ARC
  5
76
100
AcDbEntity
  8
0
 62
256
370
-1
  6
CONTINUOUS
100
AcDbCircle
 10
75.0
 20
75.0
 30
0.0
 40
67.4999999999999858
100
AcDbArc
 50
344.6812596115890983
 51
22.69823499339196
  0
ARC
  5
77
100
AcDbEntity
  8
0
 62
256
370
-1
  6
CONTINUOUS
100
AcDbCircle
 10
75.0
 20
75.0
 30
0.0
 40
67.4999999999999858
100
AcDbArc
 50
29.6812596205471664
 51
67.6982349935224335
  0
ARC
  5
78
100
AcDbEntity
  8
0
 62
256
370
-1
  6
CONTINUOUS
100
AcDbCircle
 10
75.0
 20
75.0
 30
0.0
 40
67.5
100
AcDbArc
 50
74.6812596207373502
 51
112.6982349936529033
  0
ARC
  5
79
100
AcDbEntity
  8
0
 62
256
370
-1
  6
CONTINUOUS
100
AcDbCircle
 10
75.0
 20
75.0
 30
0.0
 40
67.5000000000000142
100
AcDbArc
 50
119.6812596209276052
 51
157.3774780965713944
  0
ARC
  5
7A
100
AcDbEntity
  8
0
 62
256
370
-1
  6
CONTINUOUS
100
AcDbCircle
 10
75.0
 20
75.0
 30
0.0
 40
67.5
100
AcDbArc
 50
164.3769765232761131
 51
202.248457953465504
  0
ARC
  5
7B
100
AcDbEntity
  8
0
 62
256
370
-1
  6
CONTINUOUS
100
AcDbCircle
 10
75.0
 20
75.0
 30
0.0
 40
75.0
100
AcDbArc
 50
60.2096221791511326
 51
119.7903778259937013
  0
ARC
  5
7C
100
AcDbEntity
  8
0
 62
256
370
-1
  6
CONTINUOUS
100
AcDbCircle
 10
75.0
 20
75.0
 30
0.0
 40
75.0
100
AcDbArc
 50
330.2096221765785913
 51
29.7903778234212311
  0
ARC
  5
7D
100
AcDbEntity
  8
0
 62
256
370
-1
  6
CONTINUOUS
100
AcDbCircle
 10
75.0
 20
75.0
 30
0.0
 40
75.0
100
AcDbArc
 50
240.2096221740063129
 51
299.7903778208487893
  0
ARC
  5
7E
100
AcDbEntity
  8
0
 62
256
370
-1
  6
CONTINUOUS
100
AcDbCircle
 10
75.0
 20
75.0
 30
0.0
 40
75.0
100
AcDbArc
 50
150.2096221817234039
 51
209.7903778182765961
  0
CIRCLE
  5
7F
100
AcDbEntity
100
AcDbCircle
  8
0
 62
256
370
-1
  6
CONTINUOUS
 10
130.0
 20
20.0
 30
0.0
 40
2.0
  0
CIRCLE
  5
80
100
AcDbEntity
100
AcDbCircle
  8
0
 62
256
370
-1
  6
CONTINUOUS
 10
130.0
 20
130.0
 30
0.0
 40
2.0
  0
CIRCLE
  5
81
100
AcDbEntity
100
AcDbCircle
  8
0
 62
256
370
-1
  6
CONTINUOUS
 10
20.0
 20
130.0
 30
0.0
 40
2.0
  0
CIRCLE
  5
82
100
AcDbEntity
100
AcDbCircle
  8
0
 62
256
370
-1
  6
CONTINUOUS
 10
20.0
 20
20.0
 30
0.0
 40
2.0
  0
LWPOLYLINE
  5
83
  8
0
 62
256
370
-1
  6
CONTINUOUS
100
AcDbEntity
100
AcDbPolyline
 90
55
 70
0
 10
9.911332328904809
 20
112.2621166978169072
 10
9.8145512807543298
 20
113.3918519250875079
 10
9.6935352546375988
 20
114.5265888017009956
 10
9.4112651384871704
 20
116.8043669439906012
 10
9.1294557204171589
 20
119.0820500067528087
 10
9.0090155669009313
 20
120.2166680339570917
 10
8.9130407403911711
 20
121.3462368720547033
 10
8.8496479583833292
 20
122.4690813813039938
 10
8.8269539383728493
 20
123.5835264219633132
 10
8.8530753978551786
 20
124.6878968542910968
 10
8.8869784066234807
 20
125.2357806111614025
 10
8.9361290543257894
 20
125.7805175385456948
 10
9.0015419306490188
 20
126.3218982439763067
 10
9.0842316252801183
 20
126.8597133349855142
 10
9.1852127279060092
 20
127.3937534191055931
 10
9.3054998282136303
 20
127.9238091038689049
 10
9.4461075158899099
 20
128.4496709968076971
 10
9.6080503806217799
 20
128.9711297054543024
 10
9.7923430120961612
 20
129.487975837340997
 10
10.0
 20
130.0
 10
10.3723015436950199
 20
130.8051780044650059
 10
10.7879656084760391
 20
131.5960016685799872
 10
11.2449201814333293
 20
132.3703989794354072
 10
11.7410932496571796
 20
133.1262979241211895
 10
12.2744128002378901
 20
133.8616264897279109
 10
12.8428068202657393
 20
134.5743126633456939
 10
13.4442032968310095
 20
135.2622844320650017
 10
14.0765302170240005
 20
135.9234697829760137
 10
14.7377155679349805
 20
136.5557967031689941
 10
15.42568733665426
 20
137.1571931797342074
 10
16.1383735102721104
 20
137.7255871997620886
 10
16.8737020758788105
 20
138.2589067503427884
 10
17.6296010205646709
 20
138.7550798185667134
 10
18.4039983314199596
 20
139.2120343915240142
 10
19.1948219955349693
 20
139.6276984563050121
 10
20.0
 20
140.0
 10
20.5120241626590492
 20
140.2076569879037891
 10
21.0288702945457295
 20
140.3919496193782095
 10
21.55032900319231
 20
140.5538924841100936
 10
22.0761908961311022
 20
140.6945001717863875
 10
22.6062465808943927
 20
140.8147872720940086
 10
23.1402866650144929
 20
140.915768374719903
 10
23.6781017560237004
 20
140.9984580693509884
 10
24.2194824614543123
 20
141.0638709456742106
 10
24.7642193888386117
 20
141.1130215933764873
 10
25.3121031457089103
 20
141.146924602144793
 10
26.4164735780366868
 20
141.1730460616271898
 10
27.5309186186960275
 20
141.1503520416167134
 10
28.6537631279452967
 20
141.0869592596087898
 10
29.783331966042887
 20
140.9909844330991007
 10
30.9179499932471913
 20
140.8705442795827878
 10
33.1956330560094131
 20
140.5887348615127905
 10
35.4734111982990328
 20
140.3064647453624048
 10
36.608148074912549
 20
140.1854487192456986
 10
37.7378833021830573
 20
140.0886676710952088
  0
LWPOLYLINE
  5
84
  8
0
 62
256
370
-1
  6
CONTINUOUS
100
AcDbEntity
100
AcDbPolyline
 90
55
 70
0
 10
112.262116697816893
 20
140.0886676710952088
 10
113.3918519250873942
 20
140.1854487192456986
 10
114.5265888017008962
 20
140.30646474536249
 10
116.8043669439905017
 20
140.5887348615129042
 10
119.082050006752695
 20
140.8705442795827878
 10
120.2166680339570064
 20
140.9909844330991007
 10
121.3462368720545896
 20
141.0869592596087898
 10
122.4690813813039085
 20
141.1503520416167134
 10
123.5835264219633132
 20
141.1730460616271898
 10
124.6878968542910968
 20
141.146924602144793
 10
125.2357806111614025
 20
141.1130215933764873
 10
125.7805175385456948
 20
141.0638709456742106
 10
126.321898243976193
 20
140.9984580693509884
 10
126.8597133349855142
 20
140.915768374719903
 10
127.3937534191055931
 20
140.8147872720940086
 10
127.9238091038689049
 20
140.6945001717863875
 10
128.4496709968076971
 20
140.5538924841100936
 10
128.9711297054543024
 20
140.3919496193782095
 10
129.487975837340997
 20
140.2076569879037891
 10
130.0
 20
140.0
 10
130.8051780044650059
 20
139.6276984563050121
 10
131.5960016685799872
 20
139.2120343915240142
 10
132.3703989794354072
 20
138.7550798185667134
 10
133.1262979241211895
 20
138.2589067503427884
 10
133.8616264897279109
 20
137.7255871997620886
 10
134.5743126633456939
 20
137.1571931797342074
 10
135.2622844320650017
 20
136.5557967031689941
 10
135.9234697829760137
 20
135.9234697829760137
 10
136.5557967031689941
 20
135.2622844320650017
 10
137.1571931797342074
 20
134.5743126633456939
 10
137.7255871997620886
 20
133.8616264897279109
 10
138.2589067503427884
 20
133.1262979241211895
 10
138.7550798185667134
 20
132.3703989794354072
 10
139.2120343915240142
 20
131.5960016685799872
 10
139.6276984563050121
 20
130.8051780044650059
 10
140.0
 20
130.0
 10
140.2076569879037891
 20
129.487975837340997
 10
140.3919496193782095
 20
128.9711297054543024
 10
140.5538924841100936
 20
128.4496709968076971
 10
140.6945001717863875
 20
127.9238091038689049
 10
140.8147872720940086
 20
127.3937534191055931
 10
140.915768374719903
 20
126.8597133349855142
 10
140.9984580693509884
 20
126.3218982439763067
 10
141.0638709456742106
 20
125.7805175385456948
 10
141.1130215933764873
 20
125.2357806111614025
 10
141.146924602144793
 20
124.6878968542910968
 10
141.1730460616271898
 20
123.5835264219633132
 10
141.1503520416167134
 20
122.4690813813039938
 10
141.0869592596087898
 20
121.3462368720547033
 10
140.9909844330991007
 20
120.2166680339570917
 10
140.8705442795827878
 20
119.0820500067528087
 10
140.5887348615127905
 20
116.8043669439904875
 10
140.3064647453624048
 20
114.5265888017009104
 10
140.1854487192456986
 20
113.3918519250875079
 10
140.0886676710952088
 20
112.2621166978169072
  0
LWPOLYLINE
  5
85
  8
0
 62
256
370
-1
  6
CONTINUOUS
100
AcDbEntity
100
AcDbPolyline
 90
55
 70
0
 10
140.0886676710952088
 20
37.7378833021830431
 10
140.1854487192456986
 20
36.6081480749125205
 10
140.3064647453624048
 20
35.4734111982989972
 10
140.5887348615127905
 20
33.1956330560093917
 10
140.8705442795827878
 20
30.9179499932471771
 10
140.9909844330991007
 20
29.7833319660428728
 10
141.0869592596087898
 20
28.6537631279452825
 10
141.1503520416167134
 20
27.5309186186960133
 10
141.1730460616271046
 20
26.4164735780366797
 10
141.146924602144793
 20
25.3121031457089032
 10
141.1130215933764873
 20
24.7642193888386117
 10
141.0638709456742106
 20
24.2194824614542981
 10
140.9984580693509884
 20
23.6781017560236933
 10
140.915768374719903
 20
23.1402866650144929
 10
140.8147872720940086
 20
22.6062465808943784
 10
140.6945001717863875
 20
22.076190896131088
 10
140.5538924841100936
 20
21.5503290031923029
 10
140.3919496193782095
 20
21.0288702945457189
 10
140.2076569879037891
 20
20.5120241626590527
 10
140.0
 20
20.0
 10
139.6276984563050121
 20
19.1948219955349799
 10
139.2120343915240142
 20
18.4039983314199631
 10
138.7550798185667134
 20
17.6296010205646567
 10
138.2589067503427884
 20
16.8737020758788177
 10
137.7255871997620886
 20
16.1383735102721104
 10
137.1571931797342074
 20
15.4256873366542635
 10
136.5557967031689941
 20
14.7377155679349912
 10
135.9234697829760137
 20
14.0765302170240005
 10
135.2622844320650017
 20
13.4442032968310201
 10
134.5743126633456939
 20
12.8428068202657428
 10
133.8616264897279109
 20
12.2744128002378972
 10
133.1262979241211895
 20
11.7410932496571796
 10
132.3703989794354072
 20
11.2449201814333293
 10
131.5960016685799872
 20
10.7879656084760391
 10
130.8051780044650059
 20
10.3723015436950199
 10
130.0
 20
10.0
 10
129.487975837340997
 20
9.7923430120961612
 10
128.9711297054543024
 20
9.6080503806217799
 10
128.4496709968076971
 20
9.4461075158899099
 10
127.9238091038689049
 20
9.3054998282136303
 10
127.3937534191055931
 20
9.1852127279060092
 10
126.8597133349855142
 20
9.0842316252801183
 10
126.3218982439763067
 20
9.0015419306490188
 10
125.7805175385456948
 20
8.9361290543257894
 10
125.2357806111614025
 20
8.8869784066234807
 10
124.6878968542910968
 20
8.8530753978551786
 10
123.5835264219633132
 20
8.8269539383728386
 10
122.4690813813039938
 20
8.8496479583833185
 10
121.3462368720547033
 20
8.9130407403911711
 10
120.2166680339570917
 20
9.0090155669009313
 10
119.0820500067528087
 20
9.1294557204171483
 10
116.8043669439905017
 20
9.4112651384871491
 10
114.5265888017008962
 20
9.6935352546375704
 10
113.3918519250873942
 20
9.8145512807543014
 10
112.262116697816893
 20
9.9113323289047806
  0
LWPOLYLINE
  5
86
  8
0
 62
256
370
-1
  6
CONTINUOUS
100
AcDbEntity
100
AcDbPolyline
 90
55
 70
0
 10
37.7378833021830786
 20
9.9113323289047912
 10
36.6081480749125632
 20
9.8145512807543192
 10
35.4734111982990328
 20
9.693535254637581
 10
33.1956330560094273
 20
9.4112651384871597
 10
30.9179499932472126
 20
9.1294557204171483
 10
29.7833319660429012
 20
9.0090155669009313
 10
28.6537631279453109
 20
8.9130407403911711
 10
27.5309186186960275
 20
8.8496479583833292
 10
26.4164735780366868
 20
8.8269539383728493
 10
25.3121031457089174
 20
8.8530753978551893
 10
24.7642193888386117
 20
8.8869784066234914
 10
24.2194824614543123
 20
8.9361290543258001
 10
23.6781017560237004
 20
9.0015419306490294
 10
23.1402866650144929
 20
9.084231625280129
 10
22.6062465808943927
 20
9.1852127279060198
 10
22.0761908961311022
 20
9.305499828213641
 10
21.55032900319231
 20
9.4461075158899099
 10
21.0288702945457295
 20
9.6080503806217799
 10
20.5120241626590492
 20
9.7923430120961612
 10
20.0
 20
10.0
 10
19.1948219955349693
 20
10.3723015436950199
 10
18.4039983314199596
 20
10.7879656084760391
 10
17.6296010205646709
 20
11.2449201814333293
 10
16.8737020758788105
 20
11.7410932496571796
 10
16.1383735102721104
 20
12.2744128002378972
 10
15.42568733665426
 20
12.8428068202657428
 10
14.7377155679349805
 20
13.4442032968310201
 10
14.0765302170240005
 20
14.0765302170240005
 10
13.4442032968310095
 20
14.7377155679349912
 10
12.8428068202657393
 20
15.4256873366542635
 10
12.2744128002378901
 20
16.1383735102721104
 10
11.7410932496571796
 20
16.8737020758788177
 10
11.2449201814333293
 20
17.6296010205646567
 10
10.7879656084760391
 20
18.4039983314199631
 10
10.3723015436950199
 20
19.1948219955349799
 10
10.0
 20
20.0
 10
9.7923430120961612
 20
20.5120241626590527
 10
9.6080503806217799
 20
21.0288702945457189
 10
9.4461075158899099
 20
21.5503290031923029
 10
9.3054998282136303
 20
22.0761908961311022
 10
9.1852127279060092
 20
22.6062465808943927
 10
9.0842316252801183
 20
23.1402866650144929
 10
9.0015419306490188
 20
23.6781017560237004
 10
8.9361290543257894
 20
24.2194824614543123
 10
8.8869784066234807
 20
24.7642193888386117
 10
8.8530753978551786
 20
25.3121031457089174
 10
8.8269539383728386
 20
26.4164735780366868
 10
8.8496479583833185
 20
27.5309186186960275
 10
8.9130407403911711
 20
28.6537631279453109
 10
9.0090155669009313
 20
29.7833319660429012
 10
9.1294557204171483
 20
30.9179499932472126
 10
9.4112651384871704
 20
33.1956330560094273
 10
9.6935352546375988
 20
35.4734111982990328
 10
9.8145512807543298
 20
36.6081480749125632
 10
9.911332328904809
 20
37.7378833021830786
  0
ENDSEC
  0
SECTION
  2
OBJECTS
  0
DICTIONARY
  5
C
100
AcDbDictionary
280
0
281
1
  3
ACAD_GROUP
350
D
  3
ACAD_LAYOUT
350
1A
  3
ACAD_MLINESTYLE
350
17
  3
ACAD_PLOTSETTINGS
350
19
  3
ACAD_PLOTSTYLENAME
350
E
  3
AcDbVariableDictionary
350
87
  0
DICTIONARY
  5
D
100
AcDbDictionary
280
0
281
1
  0
ACDBDICTIONARYWDFLT
  5
E
100
AcDbDictionary
281
1
  3
Normal
350
F
100
AcDbDictionaryWithDefault
340
F
  0
ACDBPLACEHOLDER
  5
F
  0
DICTIONARY
  5
17
100
AcDbDictionary
280
0
281
1
  3
Standard
350
18
  0
MLINESTYLE
  5
18
100
AcDbMlineStyle
  2
STANDARD
 70
0
  3

 62
256
 51
90.0
 52
90.0
 71
2
 49
0.5
 62
256
  6
BYLAYER
 49
-0.5
 62
256
  6
BYLAYER
  0
DICTIONARY
  5
19
100
AcDbDictionary
280
0
281
1
  0
DICTIONARY
  5
1A
100
AcDbDictionary
281
1
  3
Layout1
350
1E
  3
Layout2
350
26
  3
Model
350
22
  0
LAYOUT
  5
1E
100
AcDbPlotSettings
  1

  2
C:\Program Files\AutoCAD 2002\plotters\DWF ePlot (optimized for plotting).pc3
  4

  6

 40
0.0
 41
0.0
 42
0.0
 43
0.0
 44
0.0
 45
0.0
 46
0.0
 47
0.0
 48
0.0
 49
0.0
140
0.0
141
0.0
142
1.0
143
1.0
 70
688
 72
0
 73
0
 74
5
  7

 75
16
147
1.0
148
0.0
149
0.0
100
AcDbLayout
  1
Layout1
 70
1
 71
1
 10
0.0
 20
0.0
 11
420.0
 21
297.0
 12
0.0
 22
0.0
 32
0.0
 14
100000000000000000000.0
 24
100000000000000000000.0
 34
100000000000000000000.0
 15
-100000000000000000000.0
 25
-100000000000000000000.0
 35
-100000000000000000000.0
146
0.0
 13
0.0
 23
0.0
 33
0.0
 16
1.0
 26
0.0
 36
0.0
 17
0.0
 27
1.0
 37
0.0
 76
0
330
1B
  0
LAYOUT
  5
22
100
AcDbPlotSettings
  1

  2
C:\Program Files\AutoCAD 2002\plotters\DWF ePlot (optimized for plotting).pc3
  4

  6

 40
0.0
 41
0.0
 42
0.0
 43
0.0
 44
0.0
 45
0.0
 46
0.0
 47
0.0
 48
0.0
 49
0.0
140
0.0
141
0.0
142
1.0
143
1.0
 70
1712
 72
0
 73
0
 74
0
  7

 75
0
147
1.0
148
0.0
149
0.0
100
AcDbLayout
  1
Model
 70
1
 71
0
 10
0.0
 20
0.0
 11
12.0
 21
9.0
 12
0.0
 22
0.0
 32
0.0
 14
0.0
 24
0.0
 34
0.0
 15
0.0
 25
0.0
 35
0.0
146
0.0
 13
0.0
 23
0.0
 33
0.0
 16
1.0
 26
0.0
 36
0.0
 17
0.0
 27
1.0
 37
0.0
 76
0
330
1F
  0
LAYOUT
  5
26
100
AcDbPlotSettings
  1

  2
C:\Program Files\AutoCAD 2002\plotters\DWF ePlot (optimized for plotting).pc3
  4

  6

 40
0.0
 41
0.0
 42
0.0
 43
0.0
 44
0.0
 45
0.0
 46
0.0
 47
0.0
 48
0.0
 49
0.0
140
0.0
141
0.0
142
1.0
143
1.0
 70
688
 72
0
 73
0
 74
5
  7

 75
16
147
1.0
148
0.0
149
0.0
100
AcDbLayout
  1
Layout2
 70
1
 71
2
 10
0.0
 20
0.0
 11
12.0
 21
9.0
 12
0.0
 22
0.0
 32
0.0
 14
0.0
 24
0.0
 34
0.0
 15
0.0
 25
0.0
 35
0.0
146
0.0
 13
0.0
 23
0.0
 33
0.0
 16
1.0
 26
0.0
 36
0.0
 17
0.0
 27
1.0
 37
0.0
 76
0
330
23
  0
DICTIONARY
  5
87
100
AcDbDictionary
281
1
  3
DIMASSOC
350
89
  3
HIDETEXT
350
88
  0
DICTIONARYVAR
  5
88
100
DictionaryVariables
280
0
  1
2
  0
DICTIONARYVAR
  5
89
100
DictionaryVariables
280
0
  1
1
  0
ENDSEC
  0
EOF
